<svg viewBox="0 0 480.797 480.797" xmlns="http://www.w3.org/2000/svg">
  <g>
    <path style="fill:#ffffff;fill-opacity:1;fill-rule:nonzero;stroke:none;" d="m 480.398,240.399 c 0,-132.551 -107.449,-240 -240,-240 -132.55,0 -240,107.449 -240,240 0,132.55 107.45,240 240,240 132.551,0 240,-107.45 240,-240 z"></path>
    <path style="fill:#154889;fill-opacity:1;fill-rule:nonzero;stroke:none;" d="m 417.613,240.399 c 0,-98.895 -79.343,-179.067 -177.215,-179.067 -97.871,0 -177.214,80.172 -177.214,179.067 0,98.894 79.343,179.066 177.214,179.066 97.872,0 177.215,-80.172 177.215,-179.066 z"></path>
    <path style="fill:#000000;fill-opacity:1;fill-rule:nonzero;stroke:none;" d="M 240.398,480.797 C 107.633,480.797 0,373.164 0,240.399 0,107.633 107.633,0 240.398,0 c 132.766,0 240.399,107.633 240.399,240.399 0,132.765 -107.633,240.398 -240.399,240.398 z m 0,-0.398 c 132.551,0 240,-107.45 240,-240 0,-132.551 -107.449,-240 -240,-240 -132.55,0 -240,107.449 -240,240 0,132.55 107.45,240 240,240 z"></path>
    <path style="fill:none;stroke:#c1121c;stroke-width:64.3168335;stroke-linecap:butt;stroke-linejoin:miter;stroke-miterlimit:4;stroke-dasharray:none;stroke-opacity:1;" d="m 440.238,240.399 c 0,-110.368 -89.472,-199.84 -199.84,-199.84 -110.367,0 -199.839,89.472 -199.839,199.84 0,110.367 89.472,199.839 199.839,199.839 110.368,0 199.84,-89.472 199.84,-199.839 z"></path>
    <path style="fill:#c1121c;fill-opacity:1;fill-rule:nonzero;stroke:none;" d="M 118.422,396.313 84.484,362.371 206.457,240.399 84.484,118.426 118.422,84.485 240.398,206.457 362.371,84.485 396.312,118.426 274.34,240.399 396.312,362.371 362.371,396.313 240.398,274.34 118.422,396.313 Z"></path>
  </g>
</svg>

